<svg width="47" height="43" viewBox="0 0 47 43" fill="none" xmlns="http://www.w3.org/2000/svg">
<path d="M2.50004 30.7727H2.23587L2.08699 30.9909L-5 41.3798V0.5H-4.98672H-4.95993H-4.93249H-4.90439H-4.87565H-4.84627H-4.81625H-4.78558H-4.75428H-4.72235H-4.68978H-4.65658H-4.62275H-4.5883H-4.55322H-4.51752H-4.48121H-4.44427H-4.40672H-4.36856H-4.32979H-4.29041H-4.25043H-4.20984H-4.16866H-4.12687H-4.08449H-4.04151H-3.99794H-3.95379H-3.90904H-3.86371H-3.8178H-3.77131H-3.72424H-3.67659H-3.62838H-3.57958H-3.53023H-3.4803H-3.42981H-3.37876H-3.32714H-3.27498H-3.22225H-3.16897H-3.11514H-3.06077H-3.00584H-2.95038H-2.89437H-2.83782H-2.78074H-2.72312H-2.66496H-2.60628H-2.54707H-2.48734H-2.42708H-2.3663H-2.305H-2.24318H-2.18085H-2.11801H-2.05466H-1.9908H-1.92644H-1.86157H-1.79621H-1.73034H-1.66398H-1.59712H-1.52978H-1.46194H-1.39362H-1.32481H-1.25552H-1.18575H-1.11551H-1.04478H-0.973588H-0.901921H-0.829785H-0.757183H-0.684117H-0.610589H-0.536602H-0.462157H-0.387257H-0.311904H-0.236102H-0.159851H-0.0831537H-0.00601339H0.0715685H0.14959H0.228047H0.306939H0.386264H0.466018H0.5462H0.626807H0.707838H0.789289H0.871159H0.953445H1.03614H1.11926H1.20278H1.28671H1.37104H1.45577H1.54091H1.62645H1.71238H1.7987H1.88541H1.97252H2.06001H2.14788H2.23614H2.32477H2.41379H2.50318H2.59294H2.68307H2.77357H2.86444H2.95567H3.04727H3.13922H3.23153H3.32419H3.41721H3.51057H3.60429H3.69835H3.79275H3.8875H3.98258H4.078H4.17375H4.26984H4.36626H4.463H4.56007H4.65746H4.75517H4.8532H4.95155H5.05021H5.14918H5.24846H5.34805H5.44794H5.54813H5.64863H5.74942H5.85051H5.95189H6.05356H6.15552H6.25777H6.3603H6.46311H6.56621H6.66957H6.77322H6.87714H6.98133H7.08578H7.1905H7.29549H7.40074H7.50624H7.61201H7.71802H7.82429H7.93081H8.03758H8.14459H8.25185H8.35935H8.46708H8.57505H8.68326H8.7917H8.90036H9.00926H9.11838H9.22772H9.33728H9.44706H9.55705H9.66726H9.77768H9.88831H9.99915H10.1102H10.2214H10.3329H10.4445H10.5563H10.6684H10.7806H10.893H11.0056H11.1184H11.2313H11.3445H11.4578H11.5713H11.6849H11.7988H11.9128H12.0269H12.1413H12.2558H12.3704H12.4852H12.6002H12.7153H12.8305H12.946H13.0615H13.1772H13.2931H13.409H13.5251H13.6414H13.7578H13.8743H13.9909H14.1077H14.2245H14.3415H14.4587H14.5759H14.6932H14.8107H14.9283H15.0459H15.1637H15.2816H15.3996H15.5177H15.6358H15.7541H15.8725H15.9909H16.1094H16.228H16.3467H16.4655H16.5844H16.7033H16.8223H16.9413H17.0605H17.1797H17.2989H17.4183H17.5376H17.6571H17.7766H17.8961H18.0157H18.1354H18.255H18.3748H18.4945H18.6143H18.7342H18.8541H18.974H19.0939H19.2139H19.3339H19.4539H19.5739H19.6939H19.814H19.9341H20.0542H20.1743H20.2944H20.4145H20.5346H20.6547H20.7748H20.8949H21.015H21.1351H21.2551H21.3752H21.4952H21.6152H21.7352H21.8552H21.9752H22.0951H22.215H22.3348H22.4546H22.5744H22.6942H22.8139H22.9335H23.0532H23.1727H23.2922H23.4117H23.5311H23.6505H23.7697H23.889H24.0081H24.1272H24.2463H24.3652H24.4841H24.6029H24.7216H24.8403H24.9588H25.0773H25.1957H25.314H25.4322H25.5504H25.6684H25.7863H25.9041H26.0218H26.1395H26.257H26.3744H26.4916H26.6088H26.7259H26.8428H26.9596H27.0763H27.1928H27.3093H27.4256H27.5418H27.6578H27.7737H27.8894H28.0051H28.1205H28.2359H28.351H28.4661H28.5809H28.6956H28.8102H28.9246H29.0388H29.1529H29.2668H29.3806H29.4941H29.6075H29.7207H29.8338H29.9466H30.0593H30.1718H30.2841H30.3962H30.5081H30.6198H30.7314H30.8427H30.9538H31.0647H31.1754H31.286H31.3963H31.5063H31.6162H31.7259H31.8353H31.9445H32.0535H32.1623H32.2708H32.3791H32.4872H32.595H32.7026H32.81H32.9171H33.024H33.1306H33.237H33.3431H33.449H33.5546H33.66H33.765H33.8699H33.9745H34.0788H34.1828H34.2866H34.39H34.4933H34.5962H34.6988H34.8012H34.9033H35.0051H35.1066H35.2078H35.3087H35.4093H35.5097H35.6097H35.7094H35.8088H35.9079H36.0067H36.1052H36.2034H36.3012H36.3987H36.4959H36.5928H36.6894H36.7856H36.8815H36.9771H37.0723H37.1672H37.2617H37.3559H37.4498H37.5433H37.6365H37.7293H37.8218H37.9139H38.0056H38.097H38.188H38.2787H38.369H38.4589H38.5484H38.6376H38.7264H38.8148H38.9029H38.9905H39.0778H39.1647H39.2512H39.3373H39.423H39.5083H39.5932H39.6777H39.7618H39.8455H39.9288H40.0117H40.0941H40.1762H40.2578H40.339H40.4198H40.5002C43.5487 0.5 46 2.91208 46 5.86375V25.4092C46 28.3605 43.5488 30.7727 40.5002 30.7727H40.4295H40.3584H40.2871H40.2155H40.1435H40.0712H39.9987H39.9258H39.8526H39.7791H39.7053H39.6312H39.5568H39.4821H39.4072H39.3319H39.2563H39.1805H39.1044H39.028H38.9513H38.8743H38.797H38.7195H38.6417H38.5636H38.4852H38.4066H38.3277H38.2485H38.1691H38.0894H38.0094H37.9292H37.8487H37.768H37.687H37.6058H37.5243H37.4426H37.3606H37.2783H37.1959H37.1131H37.0302H36.947H36.8636H36.7799H36.696H36.6119H36.5275H36.4429H36.3581H36.2731H36.1878H36.1023H36.0166H35.9307H35.8446H35.7582H35.6717H35.5849H35.4979H35.4107H35.3234H35.2358H35.148H35.06H34.9718H34.8834H34.7948H34.7061H34.6171H34.528H34.4386H34.3491H34.2594H34.1695H34.0795H33.9892H33.8988H33.8082H33.7175H33.6265H33.5354H33.4442H33.3527H33.2611H33.1694H33.0774H32.9854H32.8931H32.8007H32.7082H32.6155H32.5227H32.4297H32.3365H32.2433H32.1498H32.0563H31.9626H31.8687H31.7748H31.6807H31.5864H31.4921H31.3976H31.3029H31.2082H31.1133H31.0183H30.9232H30.828H30.7327H30.6372H30.5416H30.446H30.3502H30.2543H30.1583H30.0622H29.966H29.8697H29.7733H29.6768H29.5802H29.4836H29.3868H29.2899H29.193H29.096H28.9989H28.9017H28.8044H28.707H28.6096H28.5121H28.4145H28.3169H28.2192H28.1214H28.0235H27.9256H27.8277H27.7296H27.6315H27.5334H27.4352H27.3369H27.2386H27.1403H27.0419H26.9434H26.8449H26.7464H26.6478H26.5492H26.4505H26.3519H26.2531H26.1544H26.0556H25.9568H25.858H25.7591H25.6602H25.5613H25.4624H25.3634H25.2645H25.1655H25.0665H24.9675H24.8685H24.7695H24.6705H24.5715H24.4725H24.3735H24.2745H24.1755H24.0765H23.9775H23.8785H23.7795H23.6805H23.5816H23.4827H23.3837H23.2848H23.186H23.0871H22.9883H22.8895H22.7907H22.692H22.5933H22.4946H22.396H22.2974H22.1989H22.1004H22.0019H21.9035H21.8051H21.7068H21.6085H21.5103H21.4121H21.314H21.2159H21.1179H21.02H20.9221H20.8243H20.7265H20.6289H20.5313H20.4337H20.3363H20.2389H20.1416H20.0443H19.9472H19.8501H19.7531H19.6562H19.5594H19.4627H19.3661H19.2696H19.1731H19.0768H18.9805H18.8844H18.7884H18.6924H18.5966H18.5009H18.4053H18.3097H18.2144H18.1191H18.0239H17.9289H17.834H17.7392H17.6445H17.5499H17.4555H17.3612H17.2671H17.173H17.0791H16.9854H16.8917H16.7983H16.7049H16.6117H16.5187H16.4258H16.333H16.2404H16.1479H16.0556H15.9635H15.8715H15.7797H15.688H15.5965H15.5051H15.414H15.3229H15.2321H15.1414H15.0509H14.9606H14.8705H14.7805H14.6907H14.6011H14.5117H14.4225H14.3335H14.2446H14.1559H14.0675H13.9792H13.8911H13.8032H13.7156H13.6281H13.5408H13.4538H13.3669H13.2802H13.1938H13.1076H13.0216H12.9358H12.8502H12.7648H12.6797H12.5948H12.5101H12.4256H12.3414H12.2574H12.1736H12.0901H12.0068H11.9237H11.8409H11.7583H11.676H11.5939H11.512H11.4304H11.3491H11.268H11.1872H11.1066H11.0262H10.9462H10.8663H10.7868H10.7075H10.6285H10.5497H10.4713H10.3931H10.3151H10.2375H10.1601H10.083H10.0061H9.9296H9.85335H9.77737H9.70169H9.62629H9.55119H9.47637H9.40186H9.32764H9.25371H9.18009H9.10677H9.03375H8.96104H8.88864H8.81654H8.74476H8.67328H8.60213H8.53128H8.46076H8.39055H8.32067H8.25111H8.18188H8.11297H8.04439H7.97614H7.90822H7.84064H7.77339H7.70648H7.63991H7.57368H7.50779H7.44225H7.37705H7.3122H7.24771H7.18356H7.11977H7.05633H6.99325H6.93053H6.86817H6.80617H6.74453H6.68326H6.62236H6.56183H6.50167H6.44188H6.38247H6.32344H6.26478H6.20651H6.14861H6.0911H6.03398H5.97724H5.92089H5.86493H5.80937H5.7542H5.69942H5.64505H5.59107H5.5375H5.48433H5.43156H5.3792H5.32725H5.27571H5.22459H5.17387H5.12358H5.0737H5.02424H4.9752H4.92658H4.87839H4.83063H4.78329H4.73639H4.68991H4.64387H4.59827H4.5531H4.50837H4.46409H4.42024H4.37684H4.33389H4.29138H4.24933H4.20772H4.16657H4.12588H4.08564H4.04586H4.00654H3.96768H3.92929H3.89136H3.8539H3.81691H3.78039H3.74434H3.70877H3.67367H3.63906H3.60492H3.57127H3.53809H3.50541H3.47321H3.4415H3.41028H3.37955H3.34932H3.31959H3.29035H3.26161H3.23337H3.20564H3.17841H3.15169H3.12548H3.09978H3.07458H3.04991H3.02575H3.0021H2.97898H2.95638H2.9343H2.91274H2.89172H2.87121H2.85124H2.83181H2.8129H2.79453H2.7767H2.7594H2.74265H2.72644H2.71077H2.69565H2.68108H2.66706H2.65359H2.64067H2.62831H2.6165H2.60525H2.59457H2.58444H2.57488H2.56588H2.55746H2.5496H2.54231H2.53559H2.52945H2.52389H2.5189H2.51449H2.51067H2.50743H2.50477H2.5027H2.50123H2.50034C2.50014 30.7727 2.50004 30.7727 2.50004 31.2727V30.7727Z" stroke="#8ECAE6"/>
<path d="M10.108 16V14.368C10.4387 14.1333 10.828 13.856 11.276 13.536C11.724 13.216 12.1773 12.864 12.636 12.48C13.1053 12.096 13.5373 11.6853 13.932 11.248C14.3267 10.8 14.6467 10.3413 14.892 9.872C15.148 9.392 15.276 8.90133 15.276 8.4C15.276 7.97333 15.164 7.61067 14.94 7.312C14.716 7.00267 14.3533 6.848 13.852 6.848C13.4253 6.848 13.0947 6.96 12.86 7.184C12.6253 7.408 12.4547 7.68533 12.348 8.016C12.2413 8.34667 12.1773 8.67733 12.156 9.008L9.996 8.832C9.996 8.34133 10.0813 7.856 10.252 7.376C10.4227 6.88533 10.6733 6.44267 11.004 6.048C11.3347 5.64267 11.74 5.32267 12.22 5.088C12.7107 4.84267 13.276 4.72 13.916 4.72C14.5987 4.72 15.2067 4.86933 15.74 5.168C16.284 5.46667 16.7053 5.888 17.004 6.432C17.3133 6.976 17.468 7.61067 17.468 8.336C17.468 8.88 17.3773 9.408 17.196 9.92C17.0253 10.432 16.7747 10.9227 16.444 11.392C16.124 11.8613 15.7347 12.3093 15.276 12.736C14.8173 13.152 14.3 13.5413 13.724 13.904C13.148 14.256 12.5293 14.576 11.868 14.864L12.444 13.952H17.9V16H10.108ZM22.6931 16V7.232L23.3171 8.32H19.8451V6.576H21.5091C21.8931 6.576 22.1865 6.49067 22.3891 6.32C22.5918 6.14933 22.6931 5.85067 22.6931 5.424V4.848H24.8851V16H22.6931ZM28.1743 16V13.808H30.4783V16H28.1743Z" fill="#8ECAE6"/>
</svg>
