<svg width="52" height="44" viewBox="0 0 52 44" fill="none" xmlns="http://www.w3.org/2000/svg">
<path d="M7.50004 31.3401H7.23484L7.0861 31.5596L0 42.0187V0.852051H0.0132787H0.0400713H0.0675148H0.095607H0.124346H0.153728H0.183753H0.214416H0.245718H0.277654H0.310223H0.343422H0.377249H0.411703H0.446779H0.482478H0.518795H0.555729H0.593277H0.631438H0.670208H0.709586H0.74957H0.790156H0.831344H0.873129H0.915512H0.958488H1.00206H1.04621H1.09096H1.13629H1.1822H1.22869H1.27576H1.32341H1.37162H1.42042H1.46977H1.5197H1.57019H1.62124H1.67286H1.72502H1.77775H1.83103H1.88486H1.93923H1.99416H2.04962H2.10563H2.16218H2.21926H2.27688H2.33504H2.39372H2.45293H2.51266H2.57292H2.6337H2.695H2.75682H2.81915H2.88199H2.94534H3.0092H3.07356H3.13843H3.20379H3.26966H3.33602H3.40288H3.47022H3.53806H3.60638H3.67519H3.74448H3.81425H3.88449H3.95522H4.02641H4.09808H4.17022H4.24282H4.31588H4.38941H4.4634H4.53784H4.61274H4.6881H4.7639H4.84015H4.91685H4.99399H5.07157H5.14959H5.22805H5.30694H5.38626H5.46602H5.5462H5.62681H5.70784H5.78929H5.87116H5.95344H6.03614H6.11926H6.20278H6.28671H6.37104H6.45577H6.54091H6.62645H6.71238H6.7987H6.88541H6.97252H7.06001H7.14788H7.23614H7.32477H7.41379H7.50318H7.59294H7.68307H7.77357H7.86444H7.95567H8.04727H8.13922H8.23153H8.32419H8.41721H8.51057H8.60429H8.69835H8.79275H8.8875H8.98258H9.078H9.17375H9.26984H9.36626H9.463H9.56007H9.65746H9.75517H9.8532H9.95155H10.0502H10.1492H10.2485H10.348H10.4479H10.5481H10.6486H10.7494H10.8505H10.9519H11.0536H11.1555H11.2578H11.3603H11.4631H11.5662H11.6696H11.7732H11.8771H11.9813H12.0858H12.1905H12.2955H12.4007H12.5062H12.612H12.718H12.8243H12.9308H13.0376H13.1446H13.2518H13.3593H13.4671H13.5751H13.6833H13.7917H13.9004H14.0093H14.1184H14.2277H14.3373H14.4471H14.5571H14.6673H14.7777H14.8883H14.9991H15.1102H15.2214H15.3329H15.4445H15.5563H15.6684H15.7806H15.893H16.0056H16.1184H16.2313H16.3445H16.4578H16.5713H16.6849H16.7988H16.9128H17.0269H17.1413H17.2558H17.3704H17.4852H17.6002H17.7153H17.8305H17.946H18.0615H18.1772H18.2931H18.409H18.5251H18.6414H18.7578H18.8743H18.9909H19.1077H19.2245H19.3415H19.4587H19.5759H19.6932H19.8107H19.9283H20.0459H20.1637H20.2816H20.3996H20.5177H20.6358H20.7541H20.8725H20.9909H21.1094H21.228H21.3467H21.4655H21.5844H21.7033H21.8223H21.9413H22.0605H22.1797H22.2989H22.4183H22.5376H22.6571H22.7766H22.8961H23.0157H23.1354H23.255H23.3748H23.4945H23.6143H23.7342H23.8541H23.974H24.0939H24.2139H24.3339H24.4539H24.5739H24.6939H24.814H24.9341H25.0542H25.1743H25.2944H25.4145H25.5346H25.6547H25.7748H25.8949H26.015H26.1351H26.2551H26.3752H26.4952H26.6152H26.7352H26.8552H26.9752H27.0951H27.215H27.3348H27.4546H27.5744H27.6942H27.8139H27.9335H28.0532H28.1727H28.2922H28.4117H28.5311H28.6505H28.7697H28.889H29.0081H29.1272H29.2463H29.3652H29.4841H29.6029H29.7216H29.8403H29.9588H30.0773H30.1957H30.314H30.4322H30.5504H30.6684H30.7863H30.9041H31.0218H31.1395H31.257H31.3744H31.4916H31.6088H31.7259H31.8428H31.9596H32.0763H32.1928H32.3093H32.4256H32.5418H32.6578H32.7737H32.8894H33.0051H33.1205H33.2359H33.351H33.4661H33.5809H33.6956H33.8102H33.9246H34.0388H34.1529H34.2668H34.3806H34.4941H34.6075H34.7207H34.8338H34.9466H35.0593H35.1718H35.2841H35.3962H35.5081H35.6198H35.7314H35.8427H35.9538H36.0647H36.1754H36.286H36.3963H36.5063H36.6162H36.7259H36.8353H36.9445H37.0535H37.1623H37.2708H37.3791H37.4872H37.595H37.7026H37.81H37.9171H38.024H38.1306H38.237H38.3431H38.449H38.5546H38.66H38.765H38.8699H38.9745H39.0788H39.1828H39.2866H39.39H39.4933H39.5962H39.6988H39.8012H39.9033H40.0051H40.1066H40.2078H40.3087H40.4093H40.5097H40.6097H40.7094H40.8088H40.9079H41.0067H41.1052H41.2034H41.3012H41.3987H41.4959H41.5928H41.6894H41.7856H41.8815H41.9771H42.0723H42.1672H42.2617H42.3559H42.4498H42.5433H42.6365H42.7293H42.8218H42.9139H43.0056H43.097H43.188H43.2787H43.369H43.4589H43.5484H43.6376H43.7264H43.8148H43.9029H43.9905H44.0778H44.1647H44.2512H44.3373H44.423H44.5083H44.5932H44.6777H44.7618H44.8455H44.9288H45.0117H45.0941H45.1762H45.2578H45.339H45.4198H45.5002C48.5455 0.852051 51 3.27901 51 6.25617V25.9362C51 28.913 48.5455 31.3401 45.5002 31.3401H45.4295H45.3584H45.2871H45.2155H45.1435H45.0712H44.9987H44.9258H44.8526H44.7791H44.7053H44.6312H44.5568H44.4821H44.4072H44.3319H44.2563H44.1805H44.1044H44.028H43.9513H43.8743H43.797H43.7195H43.6417H43.5636H43.4852H43.4066H43.3277H43.2485H43.1691H43.0894H43.0094H42.9292H42.8487H42.768H42.687H42.6058H42.5243H42.4426H42.3606H42.2783H42.1959H42.1131H42.0302H41.947H41.8636H41.7799H41.696H41.6119H41.5275H41.4429H41.3581H41.2731H41.1878H41.1023H41.0166H40.9307H40.8446H40.7582H40.6717H40.5849H40.4979H40.4107H40.3234H40.2358H40.148H40.06H39.9718H39.8834H39.7948H39.7061H39.6171H39.528H39.4386H39.3491H39.2594H39.1695H39.0795H38.9892H38.8988H38.8082H38.7175H38.6265H38.5354H38.4442H38.3527H38.2611H38.1694H38.0774H37.9854H37.8931H37.8007H37.7082H37.6155H37.5227H37.4297H37.3365H37.2433H37.1498H37.0563H36.9626H36.8687H36.7748H36.6807H36.5864H36.4921H36.3976H36.3029H36.2082H36.1133H36.0183H35.9232H35.828H35.7327H35.6372H35.5416H35.446H35.3502H35.2543H35.1583H35.0622H34.966H34.8697H34.7733H34.6768H34.5802H34.4836H34.3868H34.2899H34.193H34.096H33.9989H33.9017H33.8044H33.707H33.6096H33.5121H33.4145H33.3169H33.2192H33.1214H33.0235H32.9256H32.8277H32.7296H32.6315H32.5334H32.4352H32.3369H32.2386H32.1403H32.0419H31.9434H31.8449H31.7464H31.6478H31.5492H31.4505H31.3519H31.2531H31.1544H31.0556H30.9568H30.858H30.7591H30.6602H30.5613H30.4624H30.3634H30.2645H30.1655H30.0665H29.9675H29.8685H29.7695H29.6705H29.5715H29.4725H29.3735H29.2745H29.1755H29.0765H28.9775H28.8785H28.7795H28.6805H28.5816H28.4827H28.3837H28.2848H28.186H28.0871H27.9883H27.8895H27.7907H27.692H27.5933H27.4946H27.396H27.2974H27.1989H27.1004H27.0019H26.9035H26.8051H26.7068H26.6085H26.5103H26.4121H26.314H26.2159H26.1179H26.02H25.9221H25.8243H25.7265H25.6289H25.5313H25.4337H25.3363H25.2389H25.1416H25.0443H24.9472H24.8501H24.7531H24.6562H24.5594H24.4627H24.3661H24.2696H24.1731H24.0768H23.9805H23.8844H23.7884H23.6924H23.5966H23.5009H23.4053H23.3097H23.2144H23.1191H23.0239H22.9289H22.834H22.7392H22.6445H22.5499H22.4555H22.3612H22.2671H22.173H22.0791H21.9854H21.8917H21.7983H21.7049H21.6117H21.5187H21.4258H21.333H21.2404H21.1479H21.0556H20.9635H20.8715H20.7797H20.688H20.5965H20.5051H20.414H20.3229H20.2321H20.1414H20.0509H19.9606H19.8705H19.7805H19.6907H19.6011H19.5117H19.4225H19.3335H19.2446H19.1559H19.0675H18.9792H18.8911H18.8032H18.7156H18.6281H18.5408H18.4538H18.3669H18.2802H18.1938H18.1076H18.0216H17.9358H17.8502H17.7648H17.6797H17.5948H17.5101H17.4256H17.3414H17.2574H17.1736H17.0901H17.0068H16.9237H16.8409H16.7583H16.676H16.5939H16.512H16.4304H16.3491H16.268H16.1872H16.1066H16.0262H15.9462H15.8663H15.7868H15.7075H15.6285H15.5497H15.4713H15.3931H15.3151H15.2375H15.1601H15.083H15.0061H14.9296H14.8533H14.7774H14.7017H14.6263H14.5512H14.4764H14.4019H14.3276H14.2537H14.1801H14.1068H14.0338H13.961H13.8886H13.8165H13.7448H13.6733H13.6021H13.5313H13.4608H13.3906H13.3207H13.2511H13.1819H13.113H13.0444H12.9761H12.9082H12.8406H12.7734H12.7065H12.6399H12.5737H12.5078H12.4422H12.3771H12.3122H12.2477H12.1836H12.1198H12.0563H11.9932H11.9305H11.8682H11.8062H11.7445H11.6833H11.6224H11.5618H11.5017H11.4419H11.3825H11.3234H11.2648H11.2065H11.1486H11.0911H11.034H10.9772H10.9209H10.8649H10.8094H10.7542H10.6994H10.645H10.5911H10.5375H10.4843H10.4316H10.3792H10.3273H10.2757H10.2246H10.1739H10.1236H10.0737H10.0242H9.9752H9.92658H9.87839H9.83063H9.78329H9.73639H9.68991H9.64387H9.59827H9.5531H9.50837H9.46409H9.42024H9.37684H9.33389H9.29138H9.24933H9.20772H9.16657H9.12588H9.08564H9.04586H9.00654H8.96768H8.92929H8.89136H8.8539H8.81691H8.78039H8.74434H8.70877H8.67367H8.63906H8.60492H8.57127H8.53809H8.50541H8.47321H8.4415H8.41028H8.37955H8.34932H8.31959H8.29035H8.26161H8.23337H8.20564H8.17841H8.15169H8.12548H8.09978H8.07458H8.04991H8.02575H8.0021H7.97898H7.95638H7.9343H7.91274H7.89172H7.87121H7.85124H7.83181H7.8129H7.79453H7.7767H7.7594H7.74265H7.72644H7.71077H7.69565H7.68108H7.66706H7.65359H7.64067H7.62831H7.6165H7.60525H7.59457H7.58444H7.57488H7.56588H7.55746H7.5496H7.54231H7.53559H7.52945H7.52389H7.5189H7.51449H7.51067H7.50743H7.50477H7.5027H7.50123H7.50034C7.50014 31.3401 7.50004 31.3401 7.50004 31.8401V31.3401Z" stroke="#8ECAE6"/>
<path d="M23.98 17.5121C23.244 17.5121 22.5507 17.3841 21.9 17.1281C21.2493 16.8721 20.7267 16.4827 20.332 15.9601C19.9373 15.4374 19.74 14.7867 19.74 14.0081C19.74 13.4427 19.8573 12.9254 20.092 12.4561C20.3267 11.9867 20.6947 11.5974 21.196 11.2881C20.908 11.0534 20.6787 10.7761 20.508 10.4561C20.3373 10.1254 20.252 9.73605 20.252 9.28805C20.252 8.60538 20.428 8.02405 20.78 7.54405C21.132 7.05338 21.5907 6.68005 22.156 6.42405C22.7213 6.16805 23.3293 6.04005 23.98 6.04005C24.6413 6.04005 25.2547 6.17338 25.82 6.44005C26.3853 6.69605 26.8333 7.06938 27.164 7.56005C27.5053 8.04005 27.676 8.62138 27.676 9.30405C27.676 9.74138 27.596 10.1254 27.436 10.4561C27.2867 10.7761 27.0627 11.0534 26.764 11.2881C27.2653 11.5974 27.6333 11.9867 27.868 12.4561C28.1027 12.9254 28.22 13.4427 28.22 14.0081C28.22 14.7867 28.0227 15.4374 27.628 15.9601C27.2333 16.4827 26.7107 16.8721 26.06 17.1281C25.42 17.3841 24.7267 17.5121 23.98 17.5121ZM23.98 15.4321C24.3747 15.4321 24.7267 15.3734 25.036 15.2561C25.3453 15.1281 25.5853 14.9414 25.756 14.6961C25.9267 14.4507 26.012 14.1467 26.012 13.7841C26.012 13.4321 25.9267 13.1387 25.756 12.9041C25.5853 12.6587 25.3453 12.4774 25.036 12.3601C24.7267 12.2321 24.3747 12.1681 23.98 12.1681C23.5853 12.1681 23.2333 12.2321 22.924 12.3601C22.6147 12.4774 22.3693 12.6587 22.188 12.9041C22.0173 13.1387 21.932 13.4321 21.932 13.7841C21.932 14.1467 22.0173 14.4507 22.188 14.6961C22.3693 14.9414 22.6147 15.1281 22.924 15.2561C23.2333 15.3734 23.5853 15.4321 23.98 15.4321ZM23.98 10.6801C24.4387 10.6801 24.8067 10.5681 25.084 10.3441C25.3613 10.1201 25.5 9.82138 25.5 9.44805C25.5 9.04272 25.3667 8.72272 25.1 8.48805C24.8333 8.25338 24.46 8.13605 23.98 8.13605C23.6707 8.13605 23.3987 8.18938 23.164 8.29605C22.94 8.39205 22.764 8.54138 22.636 8.74405C22.5187 8.93605 22.46 9.16538 22.46 9.43205C22.46 9.81605 22.5987 10.1201 22.876 10.3441C23.164 10.5681 23.532 10.6801 23.98 10.6801ZM29.2211 17.3521V15.1601H31.5251V17.3521H29.2211Z" fill="#8ECAE6"/>
</svg>
