<svg width="170" height="41" viewBox="0 0 170 41" fill="none" xmlns="http://www.w3.org/2000/svg">
<g clip-path="url(#clip0_1111_177)">
<path d="M51.8594 28.138H63.8114V24.538H56.1074V10.978H51.8594V28.138Z" fill="#8ECAE6"/>
<path d="M70.8918 25.738C69.1878 25.738 68.2998 24.25 68.2998 22.018C68.2998 19.786 69.1878 18.274 70.8918 18.274C72.5958 18.274 73.5078 19.786 73.5078 22.018C73.5078 24.25 72.5958 25.738 70.8918 25.738ZM70.9158 28.522C74.8758 28.522 77.4678 25.714 77.4678 22.018C77.4678 18.322 74.8758 15.514 70.9158 15.514C66.9798 15.514 64.3398 18.322 64.3398 22.018C64.3398 25.714 66.9798 28.522 70.9158 28.522Z" fill="#8ECAE6"/>
<path d="M84.3226 32.386C86.1466 32.386 87.7546 31.978 88.8346 31.018C89.8186 30.13 90.4666 28.786 90.4666 26.938V15.85H86.7226V17.17H86.6746C85.9546 16.138 84.8506 15.49 83.2186 15.49C80.1706 15.49 78.0586 18.034 78.0586 21.634C78.0586 25.402 80.6266 27.466 83.3866 27.466C84.8746 27.466 85.8106 26.866 86.5306 26.05H86.6266V27.274C86.6266 28.762 85.9306 29.626 84.2746 29.626C82.9786 29.626 82.3306 29.074 82.1146 28.426H78.3226C78.7066 30.994 80.9386 32.386 84.3226 32.386ZM84.2986 24.562C82.8346 24.562 81.8746 23.362 81.8746 21.514C81.8746 19.642 82.8346 18.442 84.2986 18.442C85.9306 18.442 86.7946 19.834 86.7946 21.49C86.7946 23.218 86.0026 24.562 84.2986 24.562Z" fill="#8ECAE6"/>
<path d="M98.1653 25.738C96.4613 25.738 95.5733 24.25 95.5733 22.018C95.5733 19.786 96.4613 18.274 98.1653 18.274C99.8693 18.274 100.781 19.786 100.781 22.018C100.781 24.25 99.8693 25.738 98.1653 25.738ZM98.1893 28.522C102.149 28.522 104.741 25.714 104.741 22.018C104.741 18.322 102.149 15.514 98.1893 15.514C94.2533 15.514 91.6133 18.322 91.6133 22.018C91.6133 25.714 94.2533 28.522 98.1893 28.522Z" fill="#8ECAE6"/>
<path d="M105.883 28.138H109.795V15.85H105.883V28.138ZM105.883 14.146H109.795V10.978H105.883V14.146Z" fill="#8ECAE6"/>
<path d="M111.492 32.194H115.404V26.866H115.452C116.22 27.898 117.348 28.522 118.932 28.522C122.148 28.522 124.284 25.978 124.284 21.994C124.284 18.298 122.292 15.49 119.028 15.49C117.348 15.49 116.148 16.234 115.308 17.338H115.236V15.85H111.492V32.194ZM117.924 25.498C116.244 25.498 115.284 24.13 115.284 22.138C115.284 20.146 116.148 18.634 117.852 18.634C119.532 18.634 120.324 20.026 120.324 22.138C120.324 24.226 119.412 25.498 117.924 25.498Z" fill="#8ECAE6"/>
<path d="M130.656 28.522C133.872 28.522 136.248 27.13 136.248 24.442C136.248 21.298 133.704 20.746 131.544 20.386C129.984 20.098 128.592 19.978 128.592 19.114C128.592 18.346 129.336 17.986 130.296 17.986C131.376 17.986 132.12 18.322 132.264 19.426H135.864C135.672 17.002 133.8 15.49 130.32 15.49C127.416 15.49 125.016 16.834 125.016 19.426C125.016 22.306 127.296 22.882 129.432 23.242C131.064 23.53 132.552 23.65 132.552 24.754C132.552 25.546 131.808 25.978 130.632 25.978C129.336 25.978 128.52 25.378 128.376 24.154H124.68C124.8 26.866 127.056 28.522 130.656 28.522Z" fill="#8ECAE6"/>
<path d="M141.562 28.498C143.266 28.498 144.346 27.826 145.234 26.626H145.306V28.138H149.05V15.85H145.138V22.714C145.138 24.178 144.322 25.186 142.978 25.186C141.73 25.186 141.13 24.442 141.13 23.098V15.85H137.242V23.914C137.242 26.65 138.73 28.498 141.562 28.498Z" fill="#8ECAE6"/>
<path d="M150.75 28.138H154.662V21.25C154.662 19.786 155.382 18.754 156.606 18.754C157.782 18.754 158.334 19.522 158.334 20.842V28.138H162.246V21.25C162.246 19.786 162.942 18.754 164.19 18.754C165.366 18.754 165.918 19.522 165.918 20.842V28.138H169.83V20.146C169.83 17.386 168.438 15.49 165.654 15.49C164.07 15.49 162.75 16.162 161.79 17.65H161.742C161.118 16.33 159.894 15.49 158.286 15.49C156.51 15.49 155.334 16.33 154.566 17.602H154.494V15.85H150.75V28.138Z" fill="#8ECAE6"/>
<path fill-rule="evenodd" clip-rule="evenodd" d="M20.6836 40.138C31.7293 40.138 40.6836 31.1837 40.6836 20.138C40.6836 9.09234 31.7293 0.138031 20.6836 0.138031C9.63788 0.138031 0.683594 9.09234 0.683594 20.138C0.683594 31.1837 9.63788 40.138 20.6836 40.138ZM26.9229 9.45487C27.2266 8.37608 26.1797 7.73816 25.2236 8.41933L11.8767 17.9276C10.8398 18.6663 11.0029 20.138 12.1217 20.138H15.6363V20.1108H22.4861L16.9048 22.0801L14.4443 30.8212C14.1406 31.9 15.1874 32.5379 16.1436 31.8567L29.4905 22.3485C30.5274 21.6098 30.3642 20.138 29.2455 20.138H23.9157L26.9229 9.45487Z" fill="#F5841F"/>
</g>
<defs>
<clipPath id="clip0_1111_177">
<rect width="170" height="41" fill="white"/>
</clipPath>
</defs>
</svg>
