<svg width="125" height="40" viewBox="0 0 125 40" fill="none" xmlns="http://www.w3.org/2000/svg">
<g clip-path="url(#clip0_1111_338)">
<path d="M88.8603 37.225C89.6193 37.225 90.0683 36.65 90.0683 35.751C90.0683 34.819 89.5863 34.277 88.8763 34.277C88.4703 34.277 88.1883 34.457 87.9773 34.743H87.9673V33.27H87.5273V37.143H87.9673V36.775H87.9773C88.2053 37.089 88.4813 37.225 88.8603 37.225ZM88.8283 36.856C88.2323 36.856 87.9393 36.385 87.9393 35.756C87.9393 35.15 88.2213 34.651 88.8333 34.651C89.3643 34.651 89.6193 35.128 89.6193 35.756C89.6193 36.39 89.3643 36.856 88.8283 36.856ZM90.8113 38.07C91.1523 38.07 91.3693 37.95 91.5963 37.37L92.7943 34.342H92.3283L91.6883 36.087C91.6023 36.32 91.5043 36.634 91.5043 36.634H91.4943C91.4943 36.634 91.3903 36.32 91.3043 36.087L90.6433 34.342H90.1663L91.2603 37.062L91.1523 37.338C91.0443 37.609 90.9193 37.68 90.7353 37.68C90.6326 37.6852 90.5301 37.6646 90.4373 37.62H90.4153V38.01C90.5353 38.059 90.6433 38.07 90.8113 38.07ZM93.9173 37.143H94.6543V33.27H93.9173V37.143ZM96.4563 37.225C97.3173 37.225 97.9083 36.585 97.9083 35.756C97.9083 34.927 97.3183 34.288 96.4563 34.288C95.5953 34.288 95.0043 34.928 95.0043 35.756C95.0043 36.586 95.5943 37.225 96.4563 37.225ZM96.4563 36.661C96.0013 36.661 95.7523 36.298 95.7523 35.756C95.7523 35.215 96.0013 34.846 96.4563 34.846C96.9063 34.846 97.1603 35.215 97.1603 35.756C97.1603 36.298 96.9063 36.661 96.4563 36.661ZM99.4753 38.091C99.8873 38.091 100.244 37.994 100.477 37.777C100.683 37.587 100.808 37.322 100.808 36.932V34.364H100.098V34.657H100.087C99.9193 34.424 99.6653 34.288 99.3173 34.288C98.6143 34.288 98.1153 34.819 98.1153 35.648C98.1153 36.488 98.7223 36.975 99.3403 36.975C99.6923 36.975 99.9033 36.835 100.065 36.65H100.082V36.954C100.082 37.333 99.8823 37.534 99.4643 37.534C99.1233 37.534 98.9663 37.398 98.9063 37.224H98.1753C98.2503 37.766 98.7163 38.091 99.4753 38.091ZM99.4653 36.385C99.0853 36.385 98.8353 36.109 98.8353 35.637C98.8353 35.171 99.0853 34.879 99.4593 34.879C99.9033 34.879 100.12 35.225 100.12 35.632C100.12 36.044 99.9303 36.385 99.4643 36.385H99.4653ZM102.599 37.225C103.46 37.225 104.051 36.585 104.051 35.756C104.051 34.927 103.46 34.288 102.599 34.288C101.737 34.288 101.147 34.928 101.147 35.756C101.147 36.586 101.737 37.225 102.599 37.225ZM102.599 36.661C102.144 36.661 101.894 36.298 101.894 35.756C101.894 35.215 102.144 34.846 102.599 34.846C103.048 34.846 103.303 35.215 103.303 35.756C103.303 36.298 103.048 36.661 102.599 36.661ZM104.393 37.143H105.13V34.364H104.393V37.144V37.143ZM104.393 33.931H105.13V33.27H104.393V33.93V33.931ZM105.605 38.053H106.342V36.83H106.352C106.51 37.069 106.764 37.226 107.154 37.226C107.869 37.226 108.357 36.656 108.357 35.757C108.357 34.89 107.886 34.289 107.149 34.289C106.989 34.2864 106.83 34.3237 106.687 34.3975C106.544 34.4713 106.422 34.5794 106.331 34.712H106.315V34.365H105.605V38.055V38.053ZM106.997 36.613C106.558 36.613 106.325 36.282 106.325 35.778C106.325 35.28 106.51 34.884 106.97 34.884C107.425 34.884 107.609 35.252 107.609 35.778C107.609 36.304 107.371 36.612 106.997 36.612V36.613ZM109.827 37.225C110.52 37.225 110.997 36.889 110.997 36.331C110.997 35.681 110.482 35.551 110.016 35.453C109.621 35.372 109.253 35.35 109.253 35.112C109.253 34.912 109.442 34.802 109.729 34.802C110.044 34.802 110.233 34.912 110.266 35.209H110.932C110.878 34.651 110.472 34.289 109.74 34.289C109.106 34.289 108.608 34.575 108.608 35.177C108.608 35.783 109.095 35.919 109.594 36.017C109.973 36.092 110.325 36.119 110.325 36.385C110.325 36.58 110.141 36.705 109.816 36.705C109.486 36.705 109.258 36.564 109.209 36.244H108.527C108.57 36.834 109.02 37.224 109.827 37.224V37.225ZM113.795 37.143V34.364H113.058V35.968C113.058 36.336 112.846 36.596 112.5 36.596C112.186 36.596 112.039 36.417 112.039 36.092V34.364H111.308V36.217C111.308 36.824 111.655 37.219 112.272 37.219C112.662 37.219 112.879 37.073 113.069 36.819H113.085V37.143H113.795ZM114.271 37.143H115.008V35.53C115.008 35.161 115.208 34.923 115.506 34.923C115.777 34.923 115.934 35.086 115.934 35.4V37.144H116.671V35.53C116.671 35.161 116.861 34.923 117.17 34.923C117.441 34.923 117.598 35.086 117.598 35.4V37.144H118.335V35.275C118.335 34.668 118.004 34.289 117.419 34.289C117.067 34.289 116.774 34.473 116.585 34.777H116.574C116.508 34.6294 116.399 34.5046 116.262 34.4178C116.126 34.3311 115.966 34.2863 115.804 34.289C115.642 34.2849 115.481 34.3245 115.339 34.4037C115.197 34.4828 115.079 34.5987 114.997 34.739H114.981V34.365H114.271V37.145V37.143Z" fill="#E5708C"/>
<path d="M118.481 2.14894C118.481 0.965938 119.44 0.00593848 120.623 0.00593848H122.052C122.62 0.00593848 123.165 0.231718 123.567 0.633609C123.969 1.0355 124.195 1.58058 124.195 2.14894C124.195 2.7173 123.969 3.26238 123.567 3.66427C123.165 4.06616 122.62 4.29194 122.052 4.29194H120.623C120.341 4.29194 120.063 4.2365 119.803 4.12879C119.543 4.02108 119.307 3.86322 119.108 3.66421C118.909 3.4652 118.751 3.22895 118.643 2.96895C118.536 2.70896 118.48 2.43031 118.481 2.14894ZM58.4896 14.2899C58.4896 22.1779 52.0956 28.5729 44.2066 28.5729C36.3186 28.5729 29.9236 22.1779 29.9236 14.2899C29.9236 6.39994 36.3186 0.00693848 44.2066 0.00693848C52.0956 0.00693848 58.4896 6.39994 58.4896 14.2899ZM27.1376 14.2189C27.9276 14.2189 28.5736 14.8589 28.4946 15.6449C28.2246 18.3348 27.1968 20.8927 25.5307 23.0216C23.8645 25.1504 21.6285 26.7627 19.0823 27.6711C16.5361 28.5794 13.7845 28.7466 11.1471 28.153C8.50973 27.5595 6.09494 26.2297 4.1834 24.3181C2.27185 22.4066 0.942035 19.9918 0.348505 17.3544C-0.245025 14.7171 -0.0778988 11.9654 0.830461 9.41924C1.73882 6.87308 3.35111 4.63699 5.47996 2.97085C7.6088 1.3047 10.1668 0.276913 12.8566 0.00693848C13.6416 -0.0730615 14.2826 0.574939 14.2826 1.36294V12.7899C14.2826 13.5799 14.9226 14.2189 15.7116 14.2189H27.1376ZM78.4866 31.4299C79.623 31.4299 80.713 31.8814 81.5165 32.685C82.3201 33.4886 82.7716 34.5785 82.7716 35.7149C82.7716 36.8514 82.3201 37.9413 81.5165 38.7449C80.713 39.5485 79.623 39.9999 78.4866 39.9999H71.3456C70.2091 39.9999 69.1192 39.5485 68.3156 38.7449C67.512 37.9413 67.0606 36.8514 67.0606 35.7149C67.0606 34.5785 67.512 33.4886 68.3156 32.685C69.1192 31.8814 70.2091 31.4299 71.3456 31.4299H78.4866ZM74.2016 28.5729C82.0906 28.5729 88.4856 22.1779 88.4856 14.2899C88.489 11.8669 87.8732 9.48315 86.6966 7.36494L89.0566 5.00494C89.3284 4.73297 89.544 4.41012 89.6911 4.05483C89.8382 3.69954 89.9138 3.31876 89.9137 2.93423C89.9136 2.5497 89.8378 2.16896 89.6906 1.81374C89.5433 1.45852 89.3276 1.13577 89.0556 0.863938C88.7836 0.592102 88.4608 0.376496 88.1055 0.229429C87.7502 0.0823627 87.3694 0.00671637 86.9849 0.00680924C86.6004 0.0069021 86.2196 0.0827323 85.8644 0.22997C85.5092 0.377208 85.1864 0.592971 84.9146 0.864938L82.8546 2.92494C80.3694 1.02684 77.3278 0.000906653 74.2006 0.00593848C66.3136 0.00693848 59.9196 6.39994 59.9196 14.2899C59.9196 22.1779 66.3146 28.5729 74.2026 28.5729H74.2016ZM118.481 14.2899C118.481 22.1779 112.086 28.5729 104.197 28.5729C96.3086 28.5729 89.9136 22.1779 89.9136 14.2899C89.9136 6.39994 96.3086 0.00693848 104.197 0.00693848C112.086 0.00693848 118.481 6.40094 118.481 14.2899Z" fill="url(#paint0_linear_1111_338)"/>
</g>
<defs>
<linearGradient id="paint0_linear_1111_338" x1="-0.000401633" y1="15.9999" x2="119" y2="15.9999" gradientUnits="userSpaceOnUse">
<stop stop-color="#64C2DB"/>
<stop offset="0.307" stop-color="#7476ED"/>
<stop offset="0.604" stop-color="#C994DF"/>
<stop offset="1" stop-color="#E56F8C"/>
</linearGradient>
<clipPath id="clip0_1111_338">
<rect width="125" height="40" fill="white"/>
</clipPath>
</defs>
</svg>
