<svg width="132" height="40" viewBox="0 0 132 40" fill="none" xmlns="http://www.w3.org/2000/svg">
<path d="M23.2305 11.39H25.2305V25.31H31.2305V27.31H23.2305V11.39ZM37.4605 11.39C38.6472 11.39 39.8072 11.7419 40.7939 12.4012C41.7806 13.0605 42.5497 13.9975 43.0038 15.0939C43.4579 16.1903 43.5767 17.3967 43.3452 18.5605C43.1137 19.7244 42.5423 20.7935 41.7031 21.6326C40.864 22.4718 39.7949 23.0432 38.631 23.2747C37.4672 23.5062 36.2608 23.3874 35.1644 22.9333C34.068 22.4791 33.131 21.7101 32.4717 20.7234C31.8124 19.7367 31.4605 18.5767 31.4605 17.39C31.4605 16.6021 31.6157 15.8218 31.9172 15.0939C32.2187 14.3659 32.6607 13.7045 33.2179 13.1474C33.775 12.5902 34.4364 12.1482 35.1644 11.8467C35.8923 11.5452 36.6726 11.39 37.4605 11.39ZM37.4605 21.39C38.2516 21.39 39.025 21.1554 39.6828 20.7159C40.3406 20.2763 40.8533 19.6516 41.156 18.9207C41.4588 18.1898 41.538 17.3856 41.3836 16.6096C41.2293 15.8337 40.8483 15.121 40.2889 14.5616C39.7295 14.0022 39.0168 13.6212 38.2409 13.4669C37.4649 13.3125 36.6607 13.3917 35.9298 13.6945C35.1989 13.9972 34.5741 14.5099 34.1346 15.1677C33.6951 15.8255 33.4605 16.5989 33.4605 17.39C33.4658 18.4474 33.8895 19.4597 34.6391 20.2055C35.3887 20.9513 36.4031 21.37 37.4605 21.37V21.39ZM33.4605 25.33H41.4605V27.33H33.4605V25.33ZM59.0605 27.33H57.0605V25.9C55.7707 26.8028 54.2349 27.288 52.6605 27.29C51.318 27.299 49.9948 26.97 48.8129 26.3333C47.6309 25.6965 46.6282 24.7726 45.8972 23.6466C45.1661 22.5206 44.7301 21.2287 44.6295 19.8899C44.5288 18.5512 44.7667 17.2086 45.3212 15.986C45.8757 14.7633 46.729 13.6998 47.8024 12.8936C48.8759 12.0873 50.135 11.5641 51.4637 11.3723C52.7925 11.1804 54.1482 11.3261 55.4058 11.7958C56.6635 12.2655 57.7828 13.0441 58.6605 14.06L57.1905 15.37C56.5229 14.6236 55.6792 14.0562 54.7361 13.7195C53.7931 13.3827 52.7808 13.2873 51.7915 13.442C50.8021 13.5967 49.8673 13.9966 49.072 14.6051C48.2768 15.2137 47.6465 16.0115 47.2387 16.9261C46.8308 17.8406 46.6583 18.8426 46.7369 19.8409C46.8155 20.8392 47.1426 21.8019 47.6886 22.6413C48.2346 23.4807 48.9819 24.1702 49.8626 24.6468C50.7432 25.1234 51.7292 25.372 52.7305 25.37C53.5615 25.3717 54.3831 25.1939 55.1391 24.8487C55.895 24.5035 56.5675 23.9991 57.1105 23.37H51.7105V21.37H59.0805L59.0605 27.33ZM66.4205 11.43C67.6072 11.43 68.7672 11.7819 69.7539 12.4412C70.7406 13.1005 71.5097 14.0375 71.9638 15.1339C72.4179 16.2303 72.5367 17.4367 72.3052 18.6005C72.0737 19.7644 71.5023 20.8335 70.6631 21.6726C69.824 22.5118 68.7549 23.0832 67.591 23.3147C66.4272 23.5462 65.2208 23.4274 64.1244 22.9733C63.028 22.5191 62.091 21.7501 61.4317 20.7634C60.7724 19.7767 60.4205 18.6167 60.4205 17.43C60.4152 16.637 60.5672 15.8509 60.8676 15.117C61.168 14.3831 61.6109 13.716 62.1707 13.1544C62.7305 12.5927 63.3961 12.1476 64.129 11.8447C64.8619 11.5419 65.6475 11.3873 66.4405 11.39L66.4205 11.43ZM66.4205 21.43C67.2116 21.43 67.985 21.1954 68.6428 20.7559C69.3006 20.3163 69.8133 19.6916 70.116 18.9607C70.4188 18.2298 70.498 17.4256 70.3436 16.6496C70.1893 15.8737 69.8083 15.161 69.2489 14.6016C68.6895 14.0422 67.9768 13.6612 67.2009 13.5069C66.4249 13.3525 65.6207 13.4317 64.8898 13.7345C64.1589 14.0372 63.5341 14.5499 63.0946 15.2077C62.6551 15.8655 62.4205 16.6389 62.4205 17.43C62.4363 18.4839 62.8674 19.489 63.6202 20.2268C64.3729 20.9645 65.3865 21.3754 66.4405 21.37L66.4205 21.43ZM62.4205 25.37H70.4205V27.37H62.4205V25.37ZM74.5505 11.39H76.5505V27.29H74.5505V11.39ZM79.3205 11.39H81.3205C81.4235 11.3791 81.5274 11.3791 81.6305 11.39C82.4681 11.2991 83.3155 11.3857 84.1174 11.644C84.9193 11.9024 85.6579 12.3267 86.2849 12.8894C86.912 13.4521 87.4135 14.1406 87.7568 14.91C88.1002 15.6794 88.2776 16.5125 88.2776 17.355C88.2776 18.1975 88.1002 19.0306 87.7568 19.8C87.4135 20.5694 86.912 21.2579 86.2849 21.8206C85.6579 22.3833 84.9193 22.8076 84.1174 23.066C83.3155 23.3243 82.4681 23.4109 81.6305 23.32H81.3205V27.32H79.3205V11.39ZM81.3205 13.39V21.3H81.6305C82.1954 21.3752 82.7698 21.3289 83.3154 21.164C83.8609 20.9992 84.3649 20.7197 84.7936 20.3443C85.2224 19.9689 85.5659 19.5062 85.8013 18.9872C86.0367 18.4682 86.1585 17.9049 86.1585 17.335C86.1585 16.7651 86.0367 16.2018 85.8013 15.6828C85.5659 15.1638 85.2224 14.7011 84.7936 14.3257C84.3649 13.9502 83.8609 13.6708 83.3154 13.5059C82.7698 13.3411 82.1954 13.2948 81.6305 13.37C81.5216 13.3813 81.4142 13.4048 81.3105 13.44L81.3205 13.39ZM95.7305 12.54L94.2505 13.71C93.9952 13.4432 93.669 13.2548 93.3103 13.167C92.9516 13.0792 92.5753 13.0956 92.2256 13.2143C91.8758 13.3329 91.5673 13.5489 91.3361 13.8369C91.1049 14.1249 90.9607 14.4729 90.9205 14.84V15C90.9205 15.88 91.5305 16.47 92.7205 16.55C97.3005 16.83 99.4005 18.98 99.4005 21.82V22C99.2822 23.124 98.8436 24.1904 98.1368 25.0724C97.43 25.9544 96.4847 26.6147 95.4135 26.975C94.3422 27.3352 93.19 27.3802 92.0939 27.1045C90.9978 26.8289 90.0039 26.2442 89.2305 25.42L90.7605 24.24C91.1166 24.6217 91.5515 24.9213 92.035 25.1182C92.5185 25.315 93.039 25.4044 93.5605 25.38C94.5237 25.4308 95.4692 25.1075 96.1996 24.4776C96.9301 23.8478 97.389 22.9601 97.4805 22V21.86C97.4805 19.19 94.8605 18.7 92.5905 18.48C90.4905 18.28 88.9805 16.97 88.9805 15.08V15C89.0545 14.016 89.5036 13.098 90.2349 12.4356C90.9662 11.7731 91.924 11.4167 92.9105 11.44C93.4333 11.4246 93.9534 11.5189 94.4375 11.717C94.9215 11.9151 95.3586 12.2125 95.7205 12.59L95.7305 12.54ZM107.23 25.26C109.72 25.26 111.69 22.57 111.69 19.26V11.26H113.69V19.26C113.69 23.66 110.81 27.21 107.27 27.21C103.73 27.21 100.85 23.66 100.85 19.26V11.26H102.85V19.26C102.77 22.62 104.74 25.31 107.22 25.31L107.23 25.26ZM129.04 27.26H127.04V17.36L122.43 23.36L117.82 17.36V27.29H115.82V11.39L122.42 20.08L129.02 11.39L129.04 27.26Z" fill="#394149"/>
<path d="M13.63 9.00006C13.63 7.55728 13.0569 6.17359 12.0367 5.1534C11.0165 4.1332 9.63278 3.56006 8.19 3.56006C6.74722 3.56006 5.36354 4.1332 4.34334 5.1534C3.32314 6.17359 2.75 7.55728 2.75 9.00006V25.4501L7.23 28.6601V36.4801H9.15V28.6601L13.63 25.4501V9.00006ZM11.71 18.2001L9.15 20.7601V18.3601L11.71 15.8001V18.2001ZM4.71 15.8001L7.27 18.3601V20.7601L4.71 18.2001V15.8001ZM11.71 13.0801L8.19 16.6001L4.67 13.0001V10.6001L8.19 14.1201L11.71 10.6001V13.0801ZM8.19 5.48006C8.96415 5.48348 9.71583 5.74059 10.3299 6.21199C10.944 6.68339 11.3866 7.34309 11.59 8.09006L8.19 11.4801L4.79 8.09006C4.98594 7.33566 5.42537 6.66701 6.04013 6.18787C6.65489 5.70872 7.41059 5.44585 8.19 5.44005V5.48006ZM4.67 24.4801V20.8801L7.23 23.4401V26.3001L4.67 24.4801ZM9.15 26.3101V23.4401L11.71 20.8801V24.4701L9.15 26.3101Z" fill="#394149"/>
</svg>
