<svg width="147" height="46" viewBox="0 0 147 46" fill="none" xmlns="http://www.w3.org/2000/svg">
<path fill-rule="evenodd" clip-rule="evenodd" d="M72.6763 7.40747C74.0641 6.01977 76.3141 6.01977 77.7019 7.40747C79.0897 8.79527 79.0897 11.0453 77.7019 12.4331L69.241 20.894C66.8118 17.6384 67.0757 13.0082 70.0327 10.0512L72.6763 7.40747Z" fill="#4F9E91"/>
<path fill-rule="evenodd" clip-rule="evenodd" d="M84.7713 26.4967C86.1593 27.8844 86.1593 30.1345 84.7713 31.5222C83.3843 32.91 81.1339 32.91 79.7461 31.5222L71.2852 23.0614C74.5408 20.6322 79.171 20.896 82.128 23.853L84.7713 26.4967Z" fill="#EBE1C5"/>
<path fill-rule="evenodd" clip-rule="evenodd" d="M65.6835 38.5924C64.2958 39.9802 62.0457 39.9802 60.658 38.5924C59.2702 37.2046 59.2702 34.9546 60.658 33.5668L69.1188 25.106C71.548 28.3616 71.2842 32.9918 68.3272 35.9487L65.6835 38.5924Z" fill="#EBCC6E"/>
<path fill-rule="evenodd" clip-rule="evenodd" d="M53.5877 19.5032C52.1999 18.1154 52.1999 15.8654 53.5877 14.4776C54.9755 13.0898 57.2255 13.0898 58.6133 14.4776L67.0742 22.9385C63.8186 25.3677 59.1883 25.1038 56.2314 22.1469L53.5877 19.5032Z" fill="#ED834E"/>
<path fill-rule="evenodd" clip-rule="evenodd" d="M70.7852 37.5563C72.8315 35.2811 73.7826 32.3698 73.6383 29.5034L77.7017 33.5668C77.7118 33.5769 77.722 33.587 77.7322 33.5971V36.4981C77.7322 38.4607 76.1412 40.0517 74.1786 40.0517C72.5845 40.0517 71.2356 39.0021 70.7852 37.5563Z" fill="#ED834E"/>
<path fill-rule="evenodd" clip-rule="evenodd" d="M54.6243 24.6057C56.8994 26.6521 59.8107 27.6032 62.6771 27.4589L58.6138 31.5223C58.6036 31.5324 58.5935 31.5426 58.5835 31.5527H55.6825C53.7199 31.5528 52.1289 29.9617 52.1289 27.9991C52.1289 26.4051 53.1785 25.0561 54.6243 24.6057Z" fill="#4F9E91"/>
<path fill-rule="evenodd" clip-rule="evenodd" d="M83.7362 21.3941C81.4613 19.3477 78.55 18.3966 75.6836 18.5408L79.7469 14.4775C79.7571 14.4674 79.7671 14.4572 79.7772 14.447H82.6783C84.6412 14.447 86.2322 16.0381 86.2322 18.0007C86.2322 19.5948 85.1822 20.9437 83.7362 21.3941Z" fill="#EBCC6E"/>
<path fill-rule="evenodd" clip-rule="evenodd" d="M67.572 8.44374C65.5256 10.7189 64.5746 13.6302 64.7188 16.4967L60.6555 12.4333C60.6453 12.4232 60.6352 12.4131 60.625 12.403V9.50194C60.625 7.53934 62.216 5.94824 64.1786 5.94824C65.7727 5.94824 67.1216 6.99794 67.572 8.44374Z" fill="#EBE1C5"/>
<path fill-rule="evenodd" clip-rule="evenodd" d="M64.1781 3.05713C60.6187 3.05713 57.7332 5.94263 57.7332 9.50203V10.7555C55.5918 10.196 53.2186 10.7552 51.5405 12.4333C49.0236 14.9502 49.0236 19.0309 51.5405 21.5478L52.4268 22.4341C50.517 23.5527 49.2344 25.6262 49.2344 27.9993C49.2344 31.5587 52.1199 34.4442 55.6793 34.4442H56.9327C56.3732 36.5856 56.9324 38.9588 58.6105 40.6368C61.1274 43.1537 65.2081 43.1537 67.725 40.6368L70.3686 37.9932C72.7007 35.6611 73.7899 32.5567 73.6362 29.5033L77.6997 33.5667C80.2166 36.0836 84.2974 36.0836 86.8144 33.5667C89.3314 31.0498 89.3314 26.9691 86.8144 24.4523L85.9284 23.5661C87.8374 22.4475 89.1204 20.374 89.1204 18.0009C89.1204 14.4415 86.2344 11.556 82.6754 11.556H81.4219C81.9815 9.41453 81.4222 7.04133 79.7441 5.36323C77.2273 2.84633 73.1466 2.84633 70.6297 5.36323L67.986 8.00693C65.6539 10.339 64.5647 13.4433 64.7184 16.4967L60.655 12.4333C60.6448 12.4232 60.6347 12.4131 60.6245 12.403V9.50203C60.6245 7.53943 62.2155 5.94843 64.1781 5.94843C65.7722 5.94843 67.1211 6.99803 67.5715 8.44383C67.705 8.29543 67.8431 8.14973 67.9859 8.00693L69.7433 6.24953C68.6247 4.33973 66.5512 3.05713 64.1781 3.05713ZM79.7744 14.4473C79.7643 14.4574 79.7543 14.4676 79.7441 14.4777L75.6808 18.541C78.5473 18.3968 81.4585 19.3478 83.7334 21.3943C85.1794 20.9439 86.2294 19.5949 86.2294 18.0009C86.2294 16.0383 84.6384 14.4473 82.6754 14.4473H79.7744ZM58.5801 31.5529C58.5902 31.5427 58.6003 31.5325 58.6105 31.5224L62.6738 27.459C59.8074 27.6033 56.8962 26.6522 54.6211 24.6059C53.1753 25.0563 52.1256 26.4052 52.1256 27.9993C52.1256 29.9619 53.7167 31.5529 55.6793 31.5529H58.5801ZM54.5103 24.5049C54.4 24.403 54.2913 24.2985 54.1842 24.1914V24.1915C54.2913 24.2986 54.4 24.403 54.5103 24.5049ZM74.1766 42.9431C71.8034 42.9431 69.7299 41.6604 68.6113 39.7506L70.3686 37.9932C70.5115 37.8504 70.6496 37.7047 70.7831 37.5563C71.2335 39.0021 72.5824 40.0518 74.1766 40.0518C76.1392 40.0518 77.7302 38.4608 77.7302 36.4982V33.5972C78.563 34.4191 79.564 34.9683 80.6215 35.2446V36.4982C80.6215 40.0576 77.736 42.9431 74.1766 42.9431ZM77.6997 7.40763C76.3119 6.01993 74.0619 6.01993 72.6741 7.40763L70.0304 10.0513C67.0735 13.0083 66.8096 17.6385 69.2388 20.8941L77.6997 12.4332C79.0875 11.0454 79.0875 8.79543 77.6997 7.40763ZM84.7694 31.5223C86.1574 30.1345 86.1574 27.8845 84.7694 26.4967L82.126 23.853C79.1691 20.8961 74.5388 20.6322 71.2832 23.0614L79.7441 31.5223C81.1319 32.9101 83.3824 32.9101 84.7694 31.5223ZM65.6805 38.5924C64.2927 39.9802 62.0427 39.9802 60.6549 38.5924C59.2672 37.2046 59.2672 34.9546 60.6549 33.5668L69.1158 25.1059C71.545 28.3615 71.2811 32.9918 68.3242 35.9487L65.6805 38.5924ZM53.5849 14.4777C52.1972 15.8655 52.1972 18.1155 53.5849 19.5033L56.2286 22.147C59.1856 25.1039 63.8158 25.3678 67.0714 22.9386L58.6105 14.4777C57.2227 13.09 54.9727 13.09 53.5849 14.4777Z" fill="#3D3A2C"/>
<path d="M1.53125 16.0898H4.69185V25.911H10.1202V28.5716H1.53125V16.0898Z" fill="#3D3A2C"/>
<path d="M15.8598 28.8396C14.8003 28.8396 13.8717 28.6491 13.0741 28.2682C12.2765 27.8753 11.6575 27.3396 11.217 26.6611C10.7885 25.9706 10.5742 25.179 10.5742 24.2861C10.5742 23.3933 10.7885 22.6076 11.217 21.9291C11.6575 21.2386 12.2765 20.7029 13.0741 20.322C13.8717 19.9291 14.8003 19.7327 15.8598 19.7327C16.9193 19.7327 17.8478 19.9291 18.6454 20.322C19.443 20.7029 20.0561 21.2386 20.4846 21.9291C20.9251 22.6076 21.1453 23.3933 21.1453 24.2861C21.1453 25.179 20.9251 25.9706 20.4846 26.6611C20.0561 27.3396 19.443 27.8753 18.6454 28.2682C17.8478 28.6491 16.9193 28.8396 15.8598 28.8396ZM15.8598 26.3932C16.4907 26.3932 16.9907 26.2087 17.3597 25.8397C17.7407 25.4587 17.9311 24.9409 17.9311 24.2861C17.9311 23.6314 17.7407 23.1195 17.3597 22.7505C16.9907 22.3695 16.4907 22.1791 15.8598 22.1791C15.2288 22.1791 14.7229 22.3695 14.342 22.7505C13.9729 23.1195 13.7884 23.6314 13.7884 24.2861C13.7884 24.9409 13.9729 25.4587 14.342 25.8397C14.7229 26.2087 15.2288 26.3932 15.8598 26.3932Z" fill="#3D3A2C"/>
<path d="M27.049 32.6788C26.4776 32.6788 25.9002 32.6252 25.3169 32.5181C24.7455 32.4109 24.2513 32.2681 23.8347 32.0895V29.911C24.7751 30.3157 25.8466 30.5181 27.049 30.5181C27.918 30.5181 28.543 30.3395 28.9239 29.9824C29.3168 29.6253 29.5131 29.1015 29.5131 28.411V27.8932C29.1679 28.1908 28.7393 28.4229 28.2274 28.5896C27.7274 28.7563 27.1918 28.8396 26.6203 28.8396C25.7156 28.8396 24.9181 28.6491 24.2276 28.2682C23.5372 27.8872 22.9954 27.3515 22.6026 26.6611C22.2216 25.9706 22.0312 25.179 22.0312 24.2861C22.0312 23.3814 22.2216 22.5838 22.6026 21.8934C22.9835 21.2029 23.5192 20.6731 24.2097 20.3041C24.9001 19.9232 25.6919 19.7327 26.5847 19.7327C27.8109 19.7327 28.8227 20.1077 29.6203 20.8577V20.0005H32.656V27.9825C32.656 29.4705 32.1976 30.6253 31.281 31.4467C30.3763 32.2681 28.9656 32.6788 27.049 32.6788ZM27.406 26.4111C27.8941 26.4111 28.3287 26.2861 28.7096 26.0361C29.0906 25.7861 29.3583 25.4528 29.5131 25.0361V23.5362C29.3464 23.1195 29.0726 22.7921 28.6917 22.554C28.3107 22.3041 27.8822 22.1791 27.406 22.1791C26.7632 22.1791 26.2454 22.3695 25.8526 22.7505C25.4597 23.1195 25.2633 23.6254 25.2633 24.2683C25.2633 24.923 25.4597 25.4468 25.8526 25.8397C26.2454 26.2206 26.7632 26.4111 27.406 26.4111Z" fill="#3D3A2C"/>
<path d="M38.7387 28.8396C37.6792 28.8396 36.7507 28.6491 35.9531 28.2682C35.1555 27.8753 34.5364 27.3396 34.096 26.6611C33.6674 25.9706 33.4531 25.179 33.4531 24.2861C33.4531 23.3933 33.6674 22.6076 34.096 21.9291C34.5364 21.2386 35.1555 20.7029 35.9531 20.322C36.7507 19.9291 37.6792 19.7327 38.7387 19.7327C39.7982 19.7327 40.7267 19.9291 41.5243 20.322C42.3219 20.7029 42.935 21.2386 43.3636 21.9291C43.804 22.6076 44.0243 23.3933 44.0243 24.2861C44.0243 25.179 43.804 25.9706 43.3636 26.6611C42.935 27.3396 42.3219 27.8753 41.5243 28.2682C40.7267 28.6491 39.7982 28.8396 38.7387 28.8396ZM38.7387 26.3932C39.3696 26.3932 39.8696 26.2087 40.2387 25.8397C40.6196 25.4587 40.8101 24.9409 40.8101 24.2861C40.8101 23.6314 40.6196 23.1195 40.2387 22.7505C39.8696 22.3695 39.3696 22.1791 38.7387 22.1791C38.1078 22.1791 37.6018 22.3695 37.2209 22.7505C36.8518 23.1195 36.6673 23.6314 36.6673 24.2861C36.6673 24.9409 36.8518 25.4587 37.2209 25.8397C37.6018 26.2087 38.1078 26.3932 38.7387 26.3932Z" fill="#3D3A2C"/>
<path d="M94.4336 16.0898H97.5946V28.5716H94.4336V16.0898Z" fill="#3D3A2C"/>
<path d="M99.1914 20.0005H102.227V20.8577C103.024 20.1077 104.036 19.7327 105.262 19.7327C106.155 19.7327 106.947 19.9232 107.637 20.3041C108.328 20.6731 108.863 21.2029 109.244 21.8934C109.625 22.5719 109.816 23.3636 109.816 24.2683C109.816 25.1611 109.625 25.9587 109.244 26.6611C108.863 27.3515 108.328 27.8872 107.637 28.2682C106.959 28.6491 106.167 28.8396 105.262 28.8396C104.691 28.8396 104.143 28.7503 103.62 28.5717C103.108 28.4051 102.679 28.1729 102.334 27.8753V32.4823H99.1914V20.0005ZM104.441 26.3932C105.084 26.3932 105.602 26.2028 105.994 25.8218C106.387 25.4409 106.584 24.923 106.584 24.2683C106.584 23.6135 106.387 23.1017 105.994 22.7326C105.602 22.3517 105.084 22.1612 104.441 22.1612C103.965 22.1612 103.536 22.2862 103.155 22.5362C102.774 22.7743 102.501 23.1017 102.334 23.5183V25.0361C102.501 25.4528 102.774 25.7861 103.155 26.0361C103.536 26.2742 103.965 26.3932 104.441 26.3932Z" fill="#3D3A2C"/>
<path d="M114.502 28.8396C113.812 28.8396 113.092 28.7682 112.342 28.6253C111.592 28.4944 110.996 28.3039 110.556 28.0539V25.7504C111.044 26.0361 111.627 26.2742 112.306 26.4647C112.996 26.6432 113.627 26.7325 114.199 26.7325C114.615 26.7325 114.919 26.7027 115.109 26.6432C115.3 26.5837 115.395 26.4647 115.395 26.2861C115.395 26.1432 115.33 26.0301 115.199 25.9468C115.08 25.8516 114.853 25.7563 114.52 25.6611C114.199 25.554 113.824 25.4409 113.395 25.3218C112.669 25.1075 112.098 24.8873 111.681 24.6611C111.264 24.4349 110.955 24.1492 110.752 23.804C110.55 23.4588 110.449 23.0243 110.449 22.5005C110.449 21.5719 110.812 20.8815 111.538 20.4291C112.276 19.9648 113.282 19.7327 114.556 19.7327C115.175 19.7327 115.824 19.7982 116.502 19.9291C117.193 20.0601 117.71 20.2327 118.056 20.447V22.7148C117.699 22.4767 117.222 22.2802 116.627 22.1255C116.044 21.9707 115.496 21.8934 114.984 21.8934C114.58 21.8934 114.264 21.935 114.038 22.0183C113.812 22.0898 113.699 22.2207 113.699 22.4112C113.699 22.5898 113.812 22.7267 114.038 22.8219C114.264 22.9171 114.669 23.0362 115.252 23.179C115.633 23.2743 115.794 23.3159 115.734 23.304C116.496 23.5064 117.085 23.7326 117.502 23.9826C117.919 24.2326 118.21 24.5302 118.377 24.8754C118.556 25.2087 118.645 25.6373 118.645 26.1611C118.645 26.9825 118.288 27.6372 117.574 28.1253C116.871 28.6015 115.847 28.8396 114.502 28.8396Z" fill="#3D3A2C"/>
<path d="M123.34 28.8396C122.162 28.8396 121.275 28.5122 120.68 27.8575C120.097 27.2027 119.805 26.3397 119.805 25.2683V20.0005H122.948V24.9111C122.948 25.8992 123.394 26.3932 124.287 26.3932C124.692 26.3932 125.061 26.298 125.394 26.1075C125.727 25.917 126.001 25.6373 126.215 25.2683V20.0005H129.358V28.5717H126.323V27.6432C125.954 28.036 125.507 28.3336 124.983 28.536C124.46 28.7384 123.912 28.8396 123.34 28.8396Z" fill="#3D3A2C"/>
<path d="M130.965 20.0005H133.876V20.9291C134.233 20.5482 134.644 20.2565 135.108 20.0541C135.572 19.8398 136.066 19.7327 136.59 19.7327C137.233 19.7327 137.745 19.8279 138.126 20.0184C138.519 20.2089 138.834 20.4946 139.072 20.8755C139.429 20.5184 139.864 20.2386 140.376 20.0363C140.888 19.8339 141.406 19.7327 141.929 19.7327C143.06 19.7327 143.864 20.0244 144.34 20.6077C144.816 21.1791 145.054 22.0064 145.054 23.0897V28.5717H142.054V23.5362C142.054 23.06 141.965 22.7148 141.786 22.5005C141.608 22.2862 141.31 22.1791 140.894 22.1791C140.358 22.1791 139.923 22.3695 139.59 22.7505C139.602 22.9528 139.608 23.2624 139.608 23.679V28.5717H136.608V23.4112C136.608 22.9707 136.531 22.6552 136.376 22.4648C136.221 22.2743 135.947 22.1791 135.555 22.1791C134.947 22.1791 134.424 22.5183 133.983 23.1969V28.5717H130.965V20.0005Z" fill="#3D3A2C"/>
</svg>
