<svg width="73" height="49" viewBox="0 0 73 49" fill="none" xmlns="http://www.w3.org/2000/svg">
<path d="M46.8671 24C46.8671 36.4264 36.7935 46.5 24.3671 46.5C11.9408 46.5 1.86719 36.4264 1.86719 24C1.86719 11.5736 11.9408 1.5 24.3671 1.5C36.7935 1.5 46.8671 11.5736 46.8671 24Z" fill="#68DBFF"/>
<path d="M71.1331 24C71.1331 36.4264 61.1581 46.5 48.8536 46.5C36.5491 46.5 26.5742 36.4264 26.5742 24C26.5742 11.5736 36.5491 1.5 48.8536 1.5C61.1581 1.5 71.1331 11.5736 71.1331 24Z" fill="#FF7917"/>
<path d="M36.6712 42.8415C42.8116 38.8238 46.8683 31.8857 46.8683 23.9999C46.8683 16.1143 42.8116 9.17605 36.6712 5.15845C30.5911 9.17605 26.5742 16.1143 26.5742 23.9999C26.5742 31.8857 30.5911 38.8238 36.6712 42.8415Z" fill="#5D2C02"/>
</svg>
