<svg width="86" height="86" viewBox="0 0 86 86" fill="none" xmlns="http://www.w3.org/2000/svg">
<circle cx="43" cy="43" r="43" fill="#16213C"/>
<g clip-path="url(#clip0_1111_737)">
<path d="M48.125 58.9375L60.5625 46.5L57 43L48.125 51.875L44.625 48.3125L41.0625 51.875L48.125 58.9375ZM30.5 50.5H38V45.5H30.5V50.5ZM30.5 43H48V38H30.5V43ZM30.5 35.5H48V30.5H30.5V35.5ZM43 68C39.5417 68 36.2917 67.3433 33.25 66.03C30.2083 64.7183 27.5625 62.9375 25.3125 60.6875C23.0625 58.4375 21.2817 55.7917 19.97 52.75C18.6567 49.7083 18 46.4583 18 43C18 39.5417 18.6567 36.2917 19.97 33.25C21.2817 30.2083 23.0625 27.5625 25.3125 25.3125C27.5625 23.0625 30.2083 21.2808 33.25 19.9675C36.2917 18.6558 39.5417 18 43 18C46.4583 18 49.7083 18.6558 52.75 19.9675C55.7917 21.2808 58.4375 23.0625 60.6875 25.3125C62.9375 27.5625 64.7183 30.2083 66.03 33.25C67.3433 36.2917 68 39.5417 68 43C68 46.4583 67.3433 49.7083 66.03 52.75C64.7183 55.7917 62.9375 58.4375 60.6875 60.6875C58.4375 62.9375 55.7917 64.7183 52.75 66.03C49.7083 67.3433 46.4583 68 43 68ZM43 63C48.5833 63 53.3125 61.0625 57.1875 57.1875C61.0625 53.3125 63 48.5833 63 43C63 37.4167 61.0625 32.6875 57.1875 28.8125C53.3125 24.9375 48.5833 23 43 23C37.4167 23 32.6875 24.9375 28.8125 28.8125C24.9375 32.6875 23 37.4167 23 43C23 48.5833 24.9375 53.3125 28.8125 57.1875C32.6875 61.0625 37.4167 63 43 63Z" fill="#8ECAE6"/>
</g>
<defs>
<clipPath id="clip0_1111_737">
<rect width="50" height="50" fill="white" transform="translate(18 18)"/>
</clipPath>
</defs>
</svg>
