<svg width="86" height="86" viewBox="0 0 86 86" fill="none" xmlns="http://www.w3.org/2000/svg">
<circle cx="43" cy="43" r="43" fill="#16213C"/>
<path d="M44.2516 38C44.2516 33.875 40.8766 30.5 36.7516 30.5C32.6266 30.5 29.2516 33.875 29.2516 38C29.2516 42.125 32.6266 45.5 36.7516 45.5C40.8766 45.5 44.2516 42.125 44.2516 38ZM36.7516 40.5C35.3766 40.5 34.2516 39.375 34.2516 38C34.2516 36.625 35.3766 35.5 36.7516 35.5C38.1266 35.5 39.2516 36.625 39.2516 38C39.2516 39.375 38.1266 40.5 36.7516 40.5ZM53.0016 45.5C55.7766 45.5 58.0016 43.275 58.0016 40.5C58.0016 37.725 55.7766 35.5 53.0016 35.5C50.2266 35.5 47.9766 37.725 48.0016 40.5C48.0016 43.275 50.2266 45.5 53.0016 45.5ZM42.9766 18.025C29.1766 18.025 17.9766 29.225 17.9766 43.025C17.9766 56.825 29.1766 68.025 42.9766 68.025C56.7766 68.025 67.9766 56.825 67.9766 43.025C67.9766 29.225 56.7766 18.025 42.9766 18.025ZM27.6016 55.8C29.3016 54.45 33.2766 53.025 36.7516 53.025C36.9266 53.025 37.1266 53.05 37.3266 53.05C37.9266 51.45 39.0016 49.825 40.5766 48.4C39.3152 48.1584 38.0356 48.0246 36.7516 48C33.5016 48 28.2766 49.125 24.9266 51.575C23.6766 48.975 22.9766 46.075 22.9766 43C22.9766 31.975 31.9516 23 42.9766 23C54.0016 23 62.9766 31.975 62.9766 43C62.9766 46 62.3016 48.85 61.1016 51.425C58.6016 49.95 55.2016 49.25 53.0016 49.25C49.2016 49.25 41.7516 51.275 41.7516 56V62.95C39.0281 62.7952 36.3659 62.0803 33.9312 60.85C31.4966 59.6198 29.3418 57.9007 27.6016 55.8Z" fill="#8ECAE6"/>
</svg>
