<svg width="40" height="40" viewBox="0 0 40 40" fill="none" xmlns="http://www.w3.org/2000/svg">
<circle cx="20" cy="20" r="20" fill="#F5841F"/>
<path d="M21.3 25.85C21.1 25.65 21.004 25.4083 21.012 25.125C21.0207 24.8417 21.125 24.6 21.325 24.4L24.15 21.575H13C12.7167 21.575 12.479 21.479 12.287 21.287C12.0957 21.0957 12 20.8583 12 20.575C12 20.2917 12.0957 20.054 12.287 19.862C12.479 19.6707 12.7167 19.575 13 19.575H24.15L21.3 16.725C21.1 16.525 21 16.2873 21 16.012C21 15.7373 21.1 15.5 21.3 15.3C21.5 15.1 21.7377 15 22.013 15C22.2877 15 22.525 15.1 22.725 15.3L27.3 19.875C27.4 19.975 27.471 20.0833 27.513 20.2C27.5543 20.3167 27.575 20.4417 27.575 20.575C27.575 20.7083 27.5543 20.8333 27.513 20.95C27.471 21.0667 27.4 21.175 27.3 21.275L22.7 25.875C22.5167 26.0583 22.2877 26.15 22.013 26.15C21.7377 26.15 21.5 26.05 21.3 25.85V25.85Z" fill="white"/>
</svg>
