<svg width="17" height="17" viewBox="0 0 17 17" fill="none" xmlns="http://www.w3.org/2000/svg">
<path fill-rule="evenodd" clip-rule="evenodd" d="M1.83333 3.83333H15.1667V5.00929L8.5 8.34262L1.83333 5.00929V3.83333ZM0.5 3.83333C0.5 3.09695 1.09695 2.5 1.83333 2.5H15.1667C15.903 2.5 16.5 3.09695 16.5 3.83333V5.83333V12.5C16.5 13.6046 15.6046 14.5 14.5 14.5H2.5C1.39543 14.5 0.5 13.6046 0.5 12.5V5.83333V3.83333ZM1.83333 6.5V12.5C1.83333 12.8682 2.13181 13.1667 2.5 13.1667H14.5C14.8682 13.1667 15.1667 12.8682 15.1667 12.5V6.5L8.5 9.83333L1.83333 6.5Z" fill="#F5841F"/>
</svg>
