<svg width="16" height="16" viewBox="0 0 16 16" fill="none" xmlns="http://www.w3.org/2000/svg">
<path fill-rule="evenodd" clip-rule="evenodd" d="M3.39827 1.33385C3.91885 0.812833 4.76327 0.812597 5.28414 1.33332L7.74597 3.79444C8.26664 4.31497 8.26688 5.15899 7.7465 5.67981L6.87392 6.55311L9.71012 9.38886L10.5821 8.51612C11.1027 7.99511 11.9471 7.99488 12.468 8.5156L14.6651 10.7121C15.1858 11.2326 15.186 12.0766 14.6656 12.5974L13.2122 14.0521C12.36 14.905 11.0481 15.0953 9.98869 14.5197C6.39042 12.565 3.4346 9.60956 1.47894 6.01185C0.90335 4.95298 1.09269 3.64133 1.94466 2.78866L3.39827 1.33385ZM6.8033 4.73739L4.34147 2.27627L2.88786 3.73108C2.45343 4.16587 2.35676 4.83491 2.65038 5.37507C4.48313 8.74665 7.25316 11.5163 10.6252 13.3481C11.1654 13.6416 11.8344 13.5446 12.269 13.1096L13.7224 11.655L11.5253 9.45854L9.71058 11.2748L4.98862 6.55357L6.8033 4.73739Z" fill="#F5841F"/>
</svg>
