<svg width="75" height="76" viewBox="0 0 75 76" fill="none" xmlns="http://www.w3.org/2000/svg">
<path d="M28.125 27.9688V48.0312C28.125 49.4688 28.7812 50.5625 30.0937 51.3125C31.4062 52.0625 32.6875 52 33.9375 51.125L49.5 41.1875C50.6875 40.4375 51.2812 39.375 51.2812 38C51.2812 36.625 50.6875 35.5625 49.5 34.8125L33.9375 24.875C32.6875 24 31.4062 23.9375 30.0937 24.6875C28.7812 25.4375 28.125 26.5312 28.125 27.9688ZM37.5 75.5C32.3125 75.5 27.4375 74.515 22.875 72.545C18.3125 70.5775 14.3438 67.9062 10.9688 64.5312C7.59375 61.1562 4.9225 57.1875 2.955 52.625C0.985 48.0625 0 43.1875 0 38C0 32.8125 0.985 27.9375 2.955 23.375C4.9225 18.8125 7.59375 14.8438 10.9688 11.4688C14.3438 8.09375 18.3125 5.42125 22.875 3.45125C27.4375 1.48375 32.3125 0.5 37.5 0.5C42.6875 0.5 47.5625 1.48375 52.125 3.45125C56.6875 5.42125 60.6562 8.09375 64.0312 11.4688C67.4062 14.8438 70.0775 18.8125 72.045 23.375C74.015 27.9375 75 32.8125 75 38C75 43.1875 74.015 48.0625 72.045 52.625C70.0775 57.1875 67.4062 61.1562 64.0312 64.5312C60.6562 67.9062 56.6875 70.5775 52.125 72.545C47.5625 74.515 42.6875 75.5 37.5 75.5Z" fill="#F5841F"/>
</svg>
